ffmpeg version 3.4.8-0ubuntu0.2 Copyright (c) 2000-2020 the FFmpeg developers
  built with gcc 7 (Ubuntu 7.5.0-3ubuntu1~18.04)
  configuration: --prefix=/usr --extra-version=0ubuntu0.2 --toolchain=hardened --libdir=/usr/lib/x86_64-linux-gnu --incdir=/usr/include/x86_64-linux-gnu --enable-gpl --disable-stripping --enable-avresample --enable-avisynth --enable-gnutls --enable-ladspa --enable-libass --enable-libbluray --enable-libbs2b --enable-libcaca --enable-libcdio --enable-libflite --enable-libfontconfig --enable-libfreetype --enable-libfribidi --enable-libgme --enable-libgsm --enable-libmp3lame --enable-libmysofa --enable-libopenjpeg --enable-libopenmpt --enable-libopus --enable-libpulse --enable-librubberband --enable-librsvg --enable-libshine --enable-libsnappy --enable-libsoxr --enable-libspeex --enable-libssh --enable-libtheora --enable-libtwolame --enable-libvorbis --enable-libvpx --enable-libwavpack --enable-libwebp --enable-libx265 --enable-libxml2 --enable-libxvid --enable-libzmq --enable-libzvbi --enable-omx --enable-openal --enable-opengl --enable-sdl2 --enable-libdc1394 --enable-libdrm --enable-libiec61883 --enable-chromaprint --enable-frei0r --enable-libopencv --enable-libx264 --enable-shared
  libavutil      55. 78.100 / 55. 78.100
  libavcodec     57.107.100 / 57.107.100
  libavformat    57. 83.100 / 57. 83.100
  libavdevice    57. 10.100 / 57. 10.100
  libavfilter     6.107.100 /  6.107.100
  libavresample   3.  7.  0 /  3.  7.  0
  libswscale      4.  8.100 /  4.  8.100
  libswresample   2.  9.100 /  2.  9.100
  libpostproc    54.  7.100 / 54.  7.100
[rawvideo @ 0x56362f2a2a20] Estimating duration from bitrate, this may be inaccurate
Input #0, rawvideo, from '../../SVC-Encoder-20220109T061506Z-001/SVC-Encoder/Dataset/RollerCoaster/6f_2x2/tile_yuv/f1_t2_480x480.yuv':
  Duration: 00:00:10.00, start: 0.000000, bitrate: 82944 kb/s
    Stream #0:0: Video: rawvideo (I420 / 0x30323449), yuv420p, 480x480, 82944 kb/s, 30 tbr, 30 tbn, 30 tbc
Stream mapping:
  Stream #0:0 -> #0:0 (rawvideo (native) -> h264 (libx264))
Press [q] to stop, [?] for help
[libx264 @ 0x56362f2afc60] using cpu capabilities: MMX2 SSE2Fast LZCNT SSSE3 SSE4.2 AVX
[libx264 @ 0x56362f2afc60] profile High, level 3.0
Output #0, rawvideo, to 'RollerCoaster_f1_t2_480x480_x264_QP_40.h264':
  Metadata:
    encoder         : Lavf57.83.100
    Stream #0:0: Video: h264 (libx264), yuv420p, 480x480, q=-1--1, 30 fps, 30 tbn, 30 tbc
    Metadata:
      encoder         : Lavc57.107.100 libx264
    Side data:
      cpb: bitrate max/min/avg: 0/0/0 buffer size: 0 vbv_delay: -1
frame=  105 fps=0.0 q=46.0 PSNR=Y:nan U:nan V:nan *:nan size=      37kB time=00:00:02.06 bitrate= 146.6kbits/s speed=4.07x    frame=  189 fps=187 q=46.0 PSNR=Y:nan U:nan V:nan *:nan size=      72kB time=00:00:04.86 bitrate= 121.9kbits/s speed=4.82x    frame=  280 fps=185 q=46.0 PSNR=Y:nan U:nan V:nan *:nan size=     115kB time=00:00:07.90 bitrate= 119.6kbits/s speed=5.21x    frame=  300 fps=167 q=46.0 LPSNR=Y:inf U:inf V:inf *:inf size=     147kB time=00:00:09.93 bitrate= 121.0kbits/s speed=5.51x    
video:147kB audio:0kB subtitle:0kB other streams:0kB global headers:0kB muxing overhead: 0.000000%
[libx264 @ 0x56362f2afc60] frame I:2     Avg QP:38.18  size:  8940  PSNR Mean Y:31.21 U:40.05 V:40.97 Avg:32.72 Global:32.68
[libx264 @ 0x56362f2afc60] frame P:76    Avg QP:40.50  size:  1076  PSNR Mean Y:29.96 U:40.18 V:40.54 Avg:31.52 Global:31.51
[libx264 @ 0x56362f2afc60] frame B:222   Avg QP:45.53  size:   228  PSNR Mean Y:29.64 U:40.07 V:40.38 Avg:31.21 Global:31.20
[libx264 @ 0x56362f2afc60] consecutive B-frames:  1.3%  0.0%  0.0% 98.7%
[libx264 @ 0x56362f2afc60] mb I  I16..4: 23.9% 64.2% 11.9%
[libx264 @ 0x56362f2afc60] mb P  I16..4:  1.2%  1.3%  0.1%  P16..4: 34.6%  4.4%  0.9%  0.0%  0.0%    skip:57.4%
[libx264 @ 0x56362f2afc60] mb B  I16..4:  0.1%  0.1%  0.0%  B16..8: 19.1%  0.4%  0.0%  direct: 0.0%  skip:80.3%  L0:35.0% L1:64.8% BI: 0.2%
[libx264 @ 0x56362f2afc60] 8x8 transform intra:57.2% inter:87.1%
[libx264 @ 0x56362f2afc60] coded y,uvDC,uvAC intra: 37.7% 49.6% 6.5% inter: 1.8% 1.4% 0.0%
[libx264 @ 0x56362f2afc60] i16 v,h,dc,p: 30% 23% 28% 19%
[libx264 @ 0x56362f2afc60] i8 v,h,dc,ddl,ddr,vr,hd,vl,hu: 14% 10% 30% 11%  5%  8%  5%  7%  9%
[libx264 @ 0x56362f2afc60] i4 v,h,dc,ddl,ddr,vr,hd,vl,hu: 25% 20% 19%  8%  5%  5%  6%  7%  5%
[libx264 @ 0x56362f2afc60] i8c dc,h,v,p: 73%  7% 13%  7%
[libx264 @ 0x56362f2afc60] Weighted P-Frames: Y:0.0% UV:0.0%
[libx264 @ 0x56362f2afc60] ref P L0: 60.3% 12.0% 20.0%  7.6%
[libx264 @ 0x56362f2afc60] ref B L0: 74.8% 22.0%  3.2%
[libx264 @ 0x56362f2afc60] ref B L1: 79.2% 20.8%
[libx264 @ 0x56362f2afc60] PSNR Mean Y:29.729 U:40.096 V:40.428 Avg:31.301 Global:31.284 kb/s:120.15
